<?xml version="1.0" encoding="UTF-8" standalone="no"?>
<!DOCTYPE svg PUBLIC "-//W3C//DTD SVG 1.1//EN" "http://www.w3.org/Graphics/SVG/1.1/DTD/svg11.dtd">
<svg version="1.1" xmlns="http://www.w3.org/2000/svg" xmlns:xlink="http://www.w3.org/1999/xlink" preserveAspectRatio="xMidYMid meet" viewBox="73.59835611297746 70.99730496453935 476.5106856001183 512.458715633429" width="472.51" height="508.46"><defs><path d="M529.08 326.07C529.08 466.29 432.95 580.14 314.54 580.14C196.14 580.14 100 466.29 100 326.07C100 185.84 196.14 72 314.54 72C432.95 72 529.08 185.84 529.08 326.07Z" id="aOfonD2Mz"></path><path d="" id="bCHG4X9eK"></path><path d="M92.45 341.99C74.3 315.33 99.4 189.64 147.97 148.26C193.46 153.59 290.01 192.54 325.73 265.64C349.54 314.38 360.76 377.58 359.39 455.26C215.1 459.58 126.12 421.83 92.45 341.99Z" id="c2apyv6AdN"></path><path d="M532.17 355.47C550.32 326.51 525.22 189.98 476.65 145.02C431.16 150.82 334.61 193.13 298.89 272.54C275.08 325.48 263.86 394.14 265.23 478.51C409.52 483.21 498.5 442.2 532.17 355.47Z" id="b8pyqI2Um"></path><path d="M309.08 579.73C405.41 585.44 473.89 530.86 511.52 457.25C536.61 408.18 548.44 344.53 546.99 266.32C356.23 291.82 276.93 396.29 309.08 579.73Z" id="e13bJsV2ur"></path><path d="M75.41 270.77C178.5 277.96 250.24 317.84 290.62 390.4C331 462.97 333.38 566.05 335.58 580.14C255.78 583.23 60.47 569.46 75.41 270.77Z" id="b3vrx1S2yj"></path></defs><g><g><g><filter id="shadow1740790" x="91" y="63" width="448.08" height="527.14" filterUnits="userSpaceOnUse" primitiveUnits="userSpaceOnUse"><feFlood></feFlood><feComposite in2="SourceAlpha" operator="in"></feComposite><feGaussianBlur stdDeviation="1"></feGaussianBlur><feOffset dx="1" dy="1" result="afterOffset"></feOffset><feFlood flood-color="#000000" flood-opacity="0.5"></feFlood><feComposite in2="afterOffset" operator="in"></feComposite><feMorphology operator="dilate" radius="1"></feMorphology><feComposite in2="SourceAlpha" operator="out"></feComposite></filter><path d="M529.08 326.07C529.08 466.29 432.95 580.14 314.54 580.14C196.14 580.14 100 466.29 100 326.07C100 185.84 196.14 72 314.54 72C432.95 72 529.08 185.84 529.08 326.07Z" id="adsfvgwet" fill="white" fill-opacity="1" filter="url(#shadow1740790)"></path></g><use xlink:href="#aOfonD2Mz" opacity="1" fill="#a3e77d" fill-opacity="1"></use><g><use xlink:href="#aOfonD2Mz" opacity="1" fill-opacity="0" stroke="#000000" stroke-width="1" stroke-opacity="1"></use></g><g><filter id="shadow5996079" x="91" y="63" width="448.08" height="527.14" filterUnits="userSpaceOnUse" primitiveUnits="userSpaceOnUse"><feFlood></feFlood><feComposite in2="SourceAlpha" operator="out"></feComposite><feGaussianBlur stdDeviation="1"></feGaussianBlur><feOffset dx="1" dy="1" result="afterOffset"></feOffset><feFlood flood-color="#000000" flood-opacity="0.8"></feFlood><feComposite in2="afterOffset" operator="in"></feComposite><feMorphology operator="dilate" radius="1"></feMorphology><feComposite in2="SourceAlpha" operator="in"></feComposite></filter><path d="M529.08 326.07C529.08 466.29 432.95 580.14 314.54 580.14C196.14 580.14 100 466.29 100 326.07C100 185.84 196.14 72 314.54 72C432.95 72 529.08 185.84 529.08 326.07Z" id="c1gSxijRz9" fill="white" fill-opacity="1" filter="url(#shadow5996079)"></path></g></g><g><g><use xlink:href="#bCHG4X9eK" opacity="1" fill-opacity="0" stroke="#000000" stroke-width="1" stroke-opacity="1"></use></g></g><g><g><filter id="shadow6658817" x="77.54" y="139.26" width="291.96" height="326.33" filterUnits="userSpaceOnUse" primitiveUnits="userSpaceOnUse"><feFlood></feFlood><feComposite in2="SourceAlpha" operator="in"></feComposite><feGaussianBlur stdDeviation="1"></feGaussianBlur><feOffset dx="1" dy="1" result="afterOffset"></feOffset><feFlood flood-color="#000000" flood-opacity="0.5"></feFlood><feComposite in2="afterOffset" operator="in"></feComposite><feMorphology operator="dilate" radius="1"></feMorphology><feComposite in2="SourceAlpha" operator="out"></feComposite></filter><path d="M92.45 341.99C74.3 315.33 99.4 189.64 147.97 148.26C193.46 153.59 290.01 192.54 325.73 265.64C349.54 314.38 360.76 377.58 359.39 455.26C215.1 459.58 126.12 421.83 92.45 341.99Z" id="d2wdXO4o" fill="white" fill-opacity="1" filter="url(#shadow6658817)"></path></g><use xlink:href="#c2apyv6AdN" opacity="1" fill="#6ebd8d" fill-opacity="1"></use><g><use xlink:href="#c2apyv6AdN" opacity="1" fill-opacity="0" stroke="#000000" stroke-width="1" stroke-opacity="1"></use></g><g><filter id="shadow11298894" x="77.54" y="139.26" width="291.96" height="326.33" filterUnits="userSpaceOnUse" primitiveUnits="userSpaceOnUse"><feFlood></feFlood><feComposite in2="SourceAlpha" operator="out"></feComposite><feGaussianBlur stdDeviation="1"></feGaussianBlur><feOffset dx="1" dy="1" result="afterOffset"></feOffset><feFlood flood-color="#000000" flood-opacity="0.8"></feFlood><feComposite in2="afterOffset" operator="in"></feComposite><feMorphology operator="dilate" radius="1"></feMorphology><feComposite in2="SourceAlpha" operator="in"></feComposite></filter><path d="M92.45 341.99C74.3 315.33 99.4 189.64 147.97 148.26C193.46 153.59 290.01 192.54 325.73 265.64C349.54 314.38 360.76 377.58 359.39 455.26C215.1 459.58 126.12 421.83 92.45 341.99Z" id="ilLPFINj6" fill="white" fill-opacity="1" filter="url(#shadow11298894)"></path></g></g><g><g><filter id="shadow10599846" x="256.12" y="136.02" width="291.96" height="352.85" filterUnits="userSpaceOnUse" primitiveUnits="userSpaceOnUse"><feFlood></feFlood><feComposite in2="SourceAlpha" operator="in"></feComposite><feGaussianBlur stdDeviation="1"></feGaussianBlur><feOffset dx="1" dy="1" result="afterOffset"></feOffset><feFlood flood-color="#000000" flood-opacity="0.5"></feFlood><feComposite in2="afterOffset" operator="in"></feComposite><feMorphology operator="dilate" radius="1"></feMorphology><feComposite in2="SourceAlpha" operator="out"></feComposite></filter><path d="M532.17 355.47C550.32 326.51 525.22 189.98 476.65 145.02C431.16 150.82 334.61 193.13 298.89 272.54C275.08 325.48 263.86 394.14 265.23 478.51C409.52 483.21 498.5 442.2 532.17 355.47Z" id="dqGiUXe7M" fill="white" fill-opacity="1" filter="url(#shadow10599846)"></path></g><use xlink:href="#b8pyqI2Um" opacity="1" fill="#6ebd6e" fill-opacity="1"></use><g><use xlink:href="#b8pyqI2Um" opacity="1" fill-opacity="0" stroke="#000000" stroke-width="1" stroke-opacity="1"></use></g><g><filter id="shadow14346399" x="256.12" y="136.02" width="291.96" height="352.85" filterUnits="userSpaceOnUse" primitiveUnits="userSpaceOnUse"><feFlood></feFlood><feComposite in2="SourceAlpha" operator="out"></feComposite><feGaussianBlur stdDeviation="1"></feGaussianBlur><feOffset dx="1" dy="1" result="afterOffset"></feOffset><feFlood flood-color="#000000" flood-opacity="0.8"></feFlood><feComposite in2="afterOffset" operator="in"></feComposite><feMorphology operator="dilate" radius="1"></feMorphology><feComposite in2="SourceAlpha" operator="in"></feComposite></filter><path d="M532.17 355.47C550.32 326.51 525.22 189.98 476.65 145.02C431.16 150.82 334.61 193.13 298.89 272.54C275.08 325.48 263.86 394.14 265.23 478.51C409.52 483.21 498.5 442.2 532.17 355.47Z" id="h5RK8AZmZy" fill="white" fill-opacity="1" filter="url(#shadow14346399)"></path></g></g><g><g><filter id="shadow8880034" x="293.12" y="257.32" width="263.99" height="332.82" filterUnits="userSpaceOnUse" primitiveUnits="userSpaceOnUse"><feFlood></feFlood><feComposite in2="SourceAlpha" operator="in"></feComposite><feGaussianBlur stdDeviation="1"></feGaussianBlur><feOffset dx="1" dy="1" result="afterOffset"></feOffset><feFlood flood-color="#000000" flood-opacity="0.5"></feFlood><feComposite in2="afterOffset" operator="in"></feComposite><feMorphology operator="dilate" radius="1"></feMorphology><feComposite in2="SourceAlpha" operator="out"></feComposite></filter><path d="M309.08 579.73C405.41 585.44 473.89 530.86 511.52 457.25C536.61 408.18 548.44 344.53 546.99 266.32C356.23 291.82 276.93 396.29 309.08 579.73Z" id="a7Drdy9gn5" fill="white" fill-opacity="1" filter="url(#shadow8880034)"></path></g><use xlink:href="#e13bJsV2ur" opacity="1" fill="#2b8d5c" fill-opacity="1"></use><g><use xlink:href="#e13bJsV2ur" opacity="1" fill-opacity="0" stroke="#000000" stroke-width="1" stroke-opacity="1"></use></g><g><filter id="shadow11355435" x="293.12" y="257.32" width="263.99" height="332.82" filterUnits="userSpaceOnUse" primitiveUnits="userSpaceOnUse"><feFlood></feFlood><feComposite in2="SourceAlpha" operator="out"></feComposite><feGaussianBlur stdDeviation="1"></feGaussianBlur><feOffset dx="1" dy="1" result="afterOffset"></feOffset><feFlood flood-color="#000000" flood-opacity="0.8"></feFlood><feComposite in2="afterOffset" operator="in"></feComposite><feMorphology operator="dilate" radius="1"></feMorphology><feComposite in2="SourceAlpha" operator="in"></feComposite></filter><path d="M309.08 579.73C405.41 585.44 473.89 530.86 511.52 457.25C536.61 408.18 548.44 344.53 546.99 266.32C356.23 291.82 276.93 396.29 309.08 579.73Z" id="aAIxszStA" fill="white" fill-opacity="1" filter="url(#shadow11355435)"></path></g></g><g><g><filter id="shadow4661870" x="65.6" y="261.77" width="279.98" height="328.68" filterUnits="userSpaceOnUse" primitiveUnits="userSpaceOnUse"><feFlood></feFlood><feComposite in2="SourceAlpha" operator="in"></feComposite><feGaussianBlur stdDeviation="1"></feGaussianBlur><feOffset dx="1" dy="1" result="afterOffset"></feOffset><feFlood flood-color="#000000" flood-opacity="0.5"></feFlood><feComposite in2="afterOffset" operator="in"></feComposite><feMorphology operator="dilate" radius="1"></feMorphology><feComposite in2="SourceAlpha" operator="out"></feComposite></filter><path d="M75.41 270.77C178.5 277.96 250.24 317.84 290.62 390.4C331 462.97 333.38 566.05 335.58 580.14C255.78 583.23 60.47 569.46 75.41 270.77Z" id="b9BB3o5T" fill="white" fill-opacity="1" filter="url(#shadow4661870)"></path></g><use xlink:href="#b3vrx1S2yj" opacity="1" fill="#2c6f46" fill-opacity="1"></use><g><use xlink:href="#b3vrx1S2yj" opacity="1" fill-opacity="0" stroke="#000000" stroke-width="1" stroke-opacity="1"></use></g><g><filter id="shadow12827113" x="65.6" y="261.77" width="279.98" height="328.68" filterUnits="userSpaceOnUse" primitiveUnits="userSpaceOnUse"><feFlood></feFlood><feComposite in2="SourceAlpha" operator="out"></feComposite><feGaussianBlur stdDeviation="1"></feGaussianBlur><feOffset dx="1" dy="1" result="afterOffset"></feOffset><feFlood flood-color="#000000" flood-opacity="0.8"></feFlood><feComposite in2="afterOffset" operator="in"></feComposite><feMorphology operator="dilate" radius="1"></feMorphology><feComposite in2="SourceAlpha" operator="in"></feComposite></filter><path d="M75.41 270.77C178.5 277.96 250.24 317.84 290.62 390.4C331 462.97 333.38 566.05 335.58 580.14C255.78 583.23 60.47 569.46 75.41 270.77Z" id="dGQjKpubh" fill="white" fill-opacity="1" filter="url(#shadow12827113)"></path></g></g></g></svg>