<svg class="canvas" viewBox="0 0 1920 1080" preserveAspectRatio="xMaxYMid slice" xmlns="http://www.w3.org/2000/svg" version="1.1" xmlns:xlink="http://www.w3.org/1999/xlink" xmlns:svgjs="http://svgjs.dev/svgjs"><rect width="1920" height="1080" fill="hsl(71, 65%, 15%)"></rect><defs><linearGradient x1="0.5" y1="0" x2="0" y2="1" id="SvgjsLinearGradient2204"><stop stop-color="#3d8a28" offset="0"></stop><stop stop-color="#061411" offset="0.1"></stop></linearGradient><linearGradient x1="0.5" y1="0" x2="0" y2="1" id="SvgjsLinearGradient2205"><stop stop-color="#2a8a28" offset="0"></stop><stop stop-color="#061414" offset="0.22857142857142856"></stop></linearGradient><linearGradient x1="0.5" y1="0" x2="0" y2="1" id="SvgjsLinearGradient2206"><stop stop-color="#2a8a28" offset="0"></stop><stop stop-color="#061414" offset="0.3571428571428571"></stop></linearGradient><linearGradient x1="0.5" y1="0" x2="0" y2="1" id="SvgjsLinearGradient2207"><stop stop-color="#c1f2c0" offset="0"></stop><stop stop-color="#42d7d4" offset="0.48571428571428565"></stop></linearGradient><linearGradient x1="0.5" y1="0" x2="0" y2="1" id="SvgjsLinearGradient2208"><stop stop-color="#dff2c0" offset="0"></stop><stop stop-color="#42d77b" offset="0.6142857142857142"></stop></linearGradient><linearGradient x1="0.5" y1="0" x2="0" y2="1" id="SvgjsLinearGradient2209"><stop stop-color="#cbf2c0" offset="0"></stop><stop stop-color="#42d7b7" offset="0.7428571428571429"></stop></linearGradient><linearGradient x1="0.5" y1="0" x2="0" y2="1" id="SvgjsLinearGradient2210"><stop stop-color="#e8f2c0" offset="0"></stop><stop stop-color="#42d75d" offset="0.8714285714285713"></stop></linearGradient></defs><path d="M0,-502.38849477175506C38.36382524577309,-488.7112152849995,145.66077263336615,-443.23209859864573,230.18295147463857,-420.32481785122184C314.705130315911,-397.41753710379794,411.8979810027923,-382.4567932489967,507.13307304763447,-364.9448102872117C602.3681650924767,-347.4328273254267,707.0537976952957,-340.0620313031043,801.5935037436918,-315.2529200805119C896.133209792088,-290.4438088579195,976.1663954141154,-247.5033466772823,1074.3713093380115,-216.09014295165724C1172.5762232619077,-184.67693922603218,1287.503274077052,-162.6710393279437,1390.8229872870684,-126.77369772676158C1494.1427004970847,-90.87635612557946,1606.0934198126213,-28.103627170398966,1694.28958859811,-0.7060933445645503C1782.4857573835986,26.691440481269865,1882.381598099685,31.225238799443332,1920,37.61150522824491L 1920 1080 L 0 1080 Z" fill="url(&quot;#SvgjsLinearGradient2204&quot;)"></path><path d="M0,-457.32289541233274C38.79235636148987,-452.1457787958542,156.20395067399218,-452.31443490410254,232.75413816893925,-426.26019571346166C309.3043256638863,-400.20595652282077,387.7911633672992,-330.92361612232116,459.3011249696824,-300.99746026848743C530.8110865720656,-271.0713044146537,582.5141345700792,-272.2153478042855,661.8139077832386,-246.70326059045934C741.113680996398,-221.19117337663315,836.5938133743072,-176.7251146871025,935.0997642486388,-147.9249369855303C1033.6057151229707,-119.12475928395813,1168.5273853587748,-92.26014446044513,1252.8496130292287,-73.90219438102628C1337.1718406996827,-55.54424430160742,1363.1434396034522,-61.851961790980226,1441.0331302713619,-37.77723650901716C1518.9228209392716,-13.702511227054092,1640.3599454152475,48.08948141368565,1720.1877570366871,70.54615731075211C1800.0155686581268,93.00283320781857,1886.6979595061146,92.56004194627668,1920,96.9628188733816L 1920 1080 L 0 1080 Z" fill="url(&quot;#SvgjsLinearGradient2205&quot;)"></path><path d="M0,-284.28162855828526C52.5665154749613,-269.82493718446005,207.43561937734108,-232.9541048927326,315.3990928497678,-197.54148031533393C423.3625663221945,-162.12885573793525,546.3790517065156,-101.5336864755965,647.7808408345602,-71.80588109389322C749.1826299626048,-42.07807571218994,817.5926391067367,-44.257544781066656,923.8098276180355,-19.174648025114223C1030.0270161293342,5.908248730838206,1164.9434222537968,48.87942551900268,1285.0839719023527,78.69149944182135C1405.2245215509085,108.50357336464002,1538.8337874930965,125.43141208324411,1644.653125509371,159.69779551179778C1750.4724635256455,193.96417894035145,1874.1088542515618,263.52446592958574,1920,284.28980001314335L 1920 1080 L 0 1080 Z" fill="url(&quot;#SvgjsLinearGradient2206&quot;)"></path><path d="M0,-120.22560455800584C56.893902721805155,-95.45316475543787,229.33013555857303,-5.89042411201909,341.36341633083094,28.409034257401963C453.39669710308885,62.708492626823016,565.0978942065026,65.99295643684015,672.1996846335473,85.57114565852049C779.3014750605921,105.14933488020084,886.0100281498675,119.49165402627933,983.9741588930993,145.87816958748405C1081.938289636331,172.26468514868876,1151.8537140367825,210.62369892324432,1259.9844690929383,243.89023902574877C1368.115224149094,277.1567791282532,1522.7561007455238,309.02052699027945,1632.758689230034,345.47741020251084C1742.7612777145441,381.9342934147422,1872.1264482050055,443.1058502830327,1920,462.63153829913705L 1920 1080 L 0 1080 Z" fill="url(&quot;#SvgjsLinearGradient2207&quot;)"></path><path d="M0,13.983164438994805C60.03078513270444,32.77066532138086,256.6811821570966,99.85960829220355,360.1847107962266,126.70816973331111C463.68823943535665,153.55673117441867,521.2954745250465,139.76768748022164,621.0211718347803,175.07453308564016C720.746869144514,210.38137869105867,852.121663096713,290.32145318928576,958.5388946546291,338.5492433658221C1064.9561262125453,386.7770335423585,1159.2492567142376,435.68067602386236,1259.5245611822772,464.4412741448584C1359.7998656503169,493.2018722658545,1450.1114816599124,486.6653741856328,1560.1907214628661,511.1128320917984C1670.2699612658198,535.560289997964,1860.0317869104776,594.457156666843,1920,611.126021581852L 1920 1080 L 0 1080 Z" fill="url(&quot;#SvgjsLinearGradient2208&quot;)"></path><path d="M0,120.77987784417512C47.19852088655782,132.51157758611404,193.14169939733125,161.55224799631068,283.19112531934695,191.17007629580866C373.24055124136265,220.78790459530663,448.0381354277277,263.1816489381756,540.2965555320942,298.48684764116297C632.5549756364608,333.7920463441503,747.8441441811615,376.8593962785623,836.741645945546,403.0012685137328C925.6391477099305,429.14314074890325,987.7417441383561,427.4097590927654,1073.6815661184014,455.3380810521858C1159.6213880984467,483.26640301160626,1254.586379047345,543.9667828324094,1352.3805778258177,570.5712002702554C1450.1747766042904,597.1756177081014,1565.8435217602078,588.0250441788463,1660.4467587892382,614.9645856792615C1755.0499958182686,641.9041271796767,1876.741126464873,712.6678053404991,1920,732.2084492727465L 1920 1080 L 0 1080 Z" fill="url(&quot;#SvgjsLinearGradient2209&quot;)"></path><path d="M0,256.6279180281019C44.155833400047904,267.5065691613129,151.77317142005597,293.7417527374648,264.93500040028744,321.899824827368C378.0968293805189,350.05789691727114,562.8863187365732,388.48848656326305,678.9709738813888,425.57635056752093C795.0556290262043,462.6642145717788,858.642563287902,497.7426502016283,961.4429312691806,544.4270088529152C1064.2432992504591,591.111367504202,1195.3962479987938,666.7406286341521,1295.77318176906,705.6825024752422C1396.1501155393264,744.6243763163324,1459.666730852288,748.6349683549314,1563.704533890778,778.0782518994556C1667.742336929268,807.5215354439798,1860.6174223151297,864.9648784352323,1920,882.3422037423877L 1920 1080 L 0 1080 Z" fill="url(&quot;#SvgjsLinearGradient2210&quot;)"></path></svg>
